<svg xmlns="http://www.w3.org/2000/svg" width="131" height="40" fill="none">
  <path fill="#fff" d="M8.1 39.5H0V0h9.05c1.867 0 3.383.1 4.55.3 1.2.167 2.133.533 2.8 1.1.667.567 1.117 1.383 1.35 2.45.267 1.033.4 2.433.4 4.2v4.1c0 1.033-.117 1.883-.35 2.55-.233.667-.533 1.2-.9 1.6-.333.4-.7.7-1.1.9-.4.167-.767.283-1.1.35v.2c.5.133.95.333 1.35.6.433.233.8.6 1.1 1.1.3.5.533 1.167.7 2 .2.8.3 1.833.3 3.1V39.5H10V22c0-.433-.05-.717-.15-.85-.1-.167-.367-.25-.8-.25H8.1v18.6Zm0-24.95h.95c.433 0 .7-.067.8-.2.1-.167.15-.467.15-.9v-5.4c0-.433-.05-.717-.15-.85-.1-.167-.367-.25-.8-.25H8.1v7.6Zm29.027 19.1c0 1.4-.116 2.517-.35 3.35-.2.833-.6 1.483-1.2 1.95-.566.433-1.366.717-2.4.85-1 .133-2.316.2-3.95.2-1.6 0-2.916-.067-3.95-.2-1.033-.133-1.833-.417-2.4-.85-.566-.467-.966-1.117-1.2-1.95-.2-.833-.3-1.95-.3-3.35V15.4c0-1.4.1-2.517.3-3.35.234-.833.634-1.467 1.2-1.9.567-.467 1.367-.767 2.4-.9 1.034-.133 2.35-.2 3.95-.2 1.634 0 2.95.067 3.95.2 1.034.133 1.834.433 2.4.9.6.433 1 1.067 1.2 1.9.234.833.35 1.95.35 3.35v18.25Zm-8.8-1.4c0 .433.05.733.15.9.1.133.35.2.75.2.434 0 .7-.067.8-.2.1-.167.15-.467.15-.9V16.8c0-.433-.05-.717-.15-.85-.1-.167-.366-.25-.8-.25-.4 0-.65.083-.75.25-.1.133-.15.417-.15.85v15.45ZM47.873 0v10.9c.433-.6.966-1.017 1.6-1.25.666-.233 1.483-.35 2.45-.35.966 0 1.75.117 2.35.35.6.2 1.05.533 1.35 1 .333.467.55 1.1.65 1.9.133.767.2 1.717.2 2.85v18.25c0 1.167-.067 2.15-.2 2.95-.1.767-.317 1.383-.65 1.85-.334.467-.817.8-1.45 1-.634.2-1.45.3-2.45.3-1.134 0-2.05-.117-2.75-.35-.7-.267-1.234-.683-1.6-1.25v1.35h-6.65V0h7.15Zm1.65 16.8c0-.4-.05-.683-.15-.85-.067-.167-.284-.25-.65-.25-.334 0-.584.067-.75.2-.134.1-.234.267-.3.5v16.25c.066.233.166.417.3.55.166.1.416.15.75.15.366 0 .583-.083.65-.25.1-.167.15-.45.15-.85V16.8ZM67.259 5.2h-7.1V0h7.1v5.2Zm0 34.3h-7.1V9.55h7.1V39.5Zm20.33 0h-7.2V16.8c0-.4-.05-.683-.15-.85-.068-.167-.284-.25-.65-.25-.334 0-.584.067-.75.2-.134.1-.25.267-.35.5v23.1h-7.15V9.55h6.65v1.35c.366-.567.9-.967 1.6-1.2.7-.267 1.616-.4 2.75-.4 1 0 1.832.1 2.5.3.7.2 1.25.533 1.65 1 .4.467.682 1.1.85 1.9.166.767.25 1.733.25 2.9v24.1Zm11.068 0h-7.25v-7.05h7.25v7.05ZM130.716 0l-4.1 39.5h-10.2l-1.35-28.65h-.2l-1.65 28.65h-10.35L99.816 0h8.15l.85 27.7h.2l1.2-27.7h10l.85 27.7h.2l1.25-27.7h8.2Z"/>
</svg>
