<svg aria-hidden="true" style="position: absolute; width: 0; height: 0; overflow: hidden;" version="1.1" xmlns="http://www.w3.org/2000/svg" xmlns:xlink="http://www.w3.org/1999/xlink">
  <defs>
<symbol id="icon-cbre" viewBox="0 0 91 32">
      <path d="M41.219 15.101c2.865-0.945 3.386-3.337 3.378-5.284-0.005-2.975-2.118-5.548-8.371-5.548l-11.673-0.002v22.354h11.643c6.29 0 8.605-3.211 8.605-6.427 0-3.893-3.582-5.093-3.582-5.093zM30.094 9.131l7.886 0.006c0.887 0.156 1.533 0.906 1.533 1.786 0 0.899-0.692 1.747-1.606 1.871l-7.808 0.011-0.005-3.674zM37.573 21.412h-7.481v-3.743l7.682 0.002c0.953 0.109 1.675 0.896 1.675 1.834 0 1.020-0.853 1.891-1.876 1.907zM70.938 4.27h19.724l-0.011 4.879h-14.233l0.013 3.603h12.832v4.903h-12.832v3.899h14.236l-0.003 5.113h-19.726v-22.397zM59.465 4.299h-11.927v22.362h5.477v-9.047l6.032-0.006c1.728 0.026 3.072 1.433 3.072 3.168v5.867l5.361-0.002-0.011-7.217c0-3.343-3.249-4.331-3.249-4.331s3.322-0.989 3.322-4.941c0-4.836-4.181-5.852-8.077-5.852zM62.454 11.236c-0.098 0.736-0.837 1.533-1.76 1.533l-7.698 0.003v-3.581h7.701c0.919 0 1.641 0.673 1.757 1.557v0.487zM21.003 21.257c-0.079 0.002-7.488 0.144-10.045-0.103-4.119-0.401-5.579-3.435-5.579-5.909 0-3.087 2.117-5.359 5.397-5.786 1.559-0.203 10.091-0.107 10.18-0.107l0.179 0.003 0.018-5.086-0.181 0.001-9.655 0.018c-1.074 0.065-2.857 0.173-4.682 0.914-1.785 0.824-3.27 2.030-4.397 3.522l-0.021 0.029c-1.384 1.827-2.218 4.139-2.218 6.645 0 0.007 0 0.014 0 0.021v-0.001c0 0.761 0.061 1.515 0.185 2.24 0.694 3.39 2.93 6.195 6.137 7.705 1.083 0.474 2.752 1.042 6.119 1.229l1.813 0.038 6.91 0.006 0.018-5.381-0.179 0.002z"></path>
    </symbol>
    <symbol id="icon-dribbble" viewBox="0 0 32 32"> 
      <path d="M16 29.333c-7.352 0-13.333-5.981-13.333-13.333s5.981-13.333 13.333-13.333 13.333 5.981 13.333 13.333-5.981 13.333-13.333 13.333zM27.244 17.825c-0.389-0.123-3.524-1.059-7.093-0.487 1.489 4.093 2.096 7.427 2.213 8.12 2.556-1.742 4.349-4.439 4.871-7.567l0.009-0.067zM20.448 26.501c-0.169-1-0.831-4.481-2.429-8.637l-0.075 0.027c-6.424 2.237-8.729 6.693-8.933 7.112 1.908 1.499 4.345 2.403 6.992 2.403 1.606 0 3.134-0.333 4.519-0.933l-0.074 0.028zM7.539 23.632c0.259-0.441 3.384-5.616 9.257-7.515 0.149-0.048 0.299-0.093 0.449-0.136-0.389-0.885-0.698-1.52-1.024-2.145l0.1 0.211c-5.687 1.703-11.205 1.632-11.704 1.621-0.004 0.107-0.006 0.232-0.006 0.357 0 2.931 1.111 5.602 2.936 7.615l-0.009-0.010zM4.852 13.685c0.509 0.007 5.201 0.027 10.528-1.388-1.468-2.577-2.864-4.728-4.367-6.797l0.145 0.21c-3.198 1.534-5.537 4.42-6.293 7.898l-0.014 0.075zM13.332 4.945c1.418 1.912 2.825 4.090 4.090 6.358l0.158 0.309c4.051-1.517 5.765-3.821 5.969-4.113-1.999-1.781-4.649-2.87-7.553-2.87-0.946 0-1.865 0.115-2.743 0.333l0.078-0.016zM24.816 8.816c-0.24 0.324-2.149 2.771-6.36 4.489 0.268 0.518 0.603 1.254 0.914 2.004l0.086 0.234c3.791-0.476 7.556 0.288 7.932 0.367-0.024-2.704-0.992-5.178-2.589-7.113l0.015 0.019z"></path>
    </symbol>
    <symbol id="icon-epiq" viewBox="0 0 91 32">
      <path d="M28.279 15.038c-1.476 4.495-5.089 7.028-9.974 7.028-6.077 0-10.838-4.821-10.838-10.992 0-6.089 4.762-11.074 10.633-11.074 5.46 0 10.715 4.496 10.674 11.973h-17.776c0.451 4.373 3.819 6.947 7.307 6.947 2.997 0 5.132-1.43 6.283-3.883h3.693zM24.914 8.867c-0.862-3.433-3.735-5.721-6.815-5.721-2.914 0-5.994 2.126-6.896 5.721h13.711zM41.047 22.066c-3.038 0-5.666-1.634-7.184-3.678v12.545h-3.49v-30.402h3.366v3.351c1.478-2.125 4.187-3.883 7.307-3.883 6.076 0 10.551 4.945 10.551 10.993 0 6.129-4.476 11.072-10.55 11.072zM41.047 3.188c-3.901 0-7.184 3.514-7.184 7.805 0 4.331 3.283 7.886 7.184 7.886 3.94 0 7.061-3.555 7.061-7.886 0-4.291-3.121-7.805-7.061-7.805zM53.117 0.532h3.489v21.043h-3.489v-21.044zM58.164 11.087c0-6.141 5.008-11.081 11.348-11.081s11.349 4.939 11.349 11.081c0 6.141-5.056 10.99-11.349 10.99s-11.348-4.849-11.348-10.99zM70.47 3.359c-5.777-0.502-8.99 3.875-8.99 8.975 0 5.099 4.223 9.234 9.429 9.234 0.005 0 0.011 0 0.018 0 2.032 0 3.916-0.636 5.464-1.72l-0.031 0.020-1.307-3.313c1.35-1.399 2.131-3.335 2.131-5.473 0-4.227-2.965-7.373-6.715-7.724z"></path>
      <path d="M66.362 13.202l10.293 8.337h5.478l-10.029-8.338z"></path>
    </symbol>
    <symbol id="icon-f" viewBox="0 0 32 32">
      <path d="M30.601 0H.382a.384.384 0 0 0-.376.314.379.379 0 0 0 .244.425l27.333 8.949c.031.01.065.009.096-.003s.056-.035.071-.064l4.079-7.566A1.388 1.388 0 0 0 31.29.181a1.396 1.396 0 0 0-.688-.182zM.007 31.633a.367.367 0 0 0 .279.358.37.37 0 0 0 .415-.183l5.258-9.74a1.395 1.395 0 0 1 1.227-.732H20.6a1.397 1.397 0 0 0 1.228-.732l4.008-7.432c.009-.017.014-.036.013-.055s-.006-.038-.016-.055c-.01-.016-.024-.03-.04-.04s-.036-.014-.055-.014H1.403a1.397 1.397 0 0 0-1.394 1.394v17.23z"/>
    </symbol>
    <symbol id="icon-fresh" viewBox="0 0 32 32">
      <path d="M29.696 0H15.465C6.924 0 0 5.947 0 14.488v10.04C6.234 11.784 21.387 2.829 29.696 0z"/>
      <path d="M1.525 32h12.612c8.541 0 15.465-6.924 15.465-15.465V.739C16.435 8.05 7.425 19.43 1.525 32z"/>
    </symbol>
    <symbol id="icon-linkedIn" viewBox="0 0 32 32">
      <path d="M26.2 4h-20.4c-0.96 0-1.8 0.724-1.8 1.688v20.624c0 0.964 0.84 1.688 1.8 1.688h20.4c0.96 0 1.8-0.724 1.8-1.688v-20.624c0-0.844-0.84-1.688-1.8-1.688zM11.080 24.623h-3.6v-11.457h3.6v11.457zM9.28 11.477c-1.2 0-2.040-0.965-2.040-2.051s0.96-2.049 2.040-2.049 2.040 0.964 2.040 2.049c0.12 1.207-0.84 2.051-2.040 2.051zM24.4 24.624h-3.6v-5.548c0-1.327 0-3.016-1.8-3.016s-2.16 1.448-2.16 3.016v5.667h-3.6v-11.455h3.36v1.568c0.48-0.965 1.68-1.809 3.36-1.809 3.6 0 4.32 2.412 4.32 5.427v6.151h0.12z"></path>
    </symbol>
    <symbol id="icon-mob-menu" viewBox="0 0 32 32">
      <path d="M0 0h32v32H0V0z"/>
      <path d="M4 8h24v4H4V8zm6.667 10.667H28v4H10.667v-4z"/>
    </symbol>
    <symbol id="icon-close-black" viewBox="0 0 32 32">
      <path d="M32 3.223 28.777 0 16 12.777 3.223 0 0 3.223 12.777 16 0 28.777 3.223 32 16 19.223 28.777 32 32 28.777 19.223 16 32 3.223z"/>
    </symbol>
    <symbol id="icon-motion-design" viewBox="0 0 32 32">
      <circle cx="16" cy="16" r="15" stroke="#5221E6" stroke-dasharray="10 10" stroke-width="2"/>
    <path fill="#5221E6" d="m21 16-7.5 4.33v-8.66L21 16Z"/>
    </symbol>
    <symbol id="icon-photography" viewBox="0 0 32 32">
      <path d="M29.828 8.236h-2.928l-0.673-3.036c-0.283-1.267-1.398-2.2-2.731-2.2-0.005 0-0.011 0-0.016 0h-10.164c-1.33 0-2.459 0.905-2.746 2.201l-0.673 3.035h-0.694v-1.296c0-0.73-0.595-1.323-1.326-1.323h-4.286c-0.73 0-1.325 0.593-1.325 1.323v1.295h-0.094c-1.198 0.001-2.17 0.971-2.172 2.169v14.688c0 1.196 0.975 2.169 2.172 2.169h10.075c1.733 1.137 3.856 1.813 6.137 1.813 0.005 0 0.011 0 0.016 0h-0.001c2.265 0 4.378-0.667 6.151-1.814h5.278c1.198-0.001 2.169-0.97 2.172-2.167v-14.689c-0.003-1.198-0.974-2.167-2.172-2.168h-0zM11.79 5.47c0.16-0.72 0.788-1.223 1.526-1.223h10.165c0.739 0 1.366 0.503 1.526 1.223l0.613 2.765h-1.070c-1.733-1.137-3.857-1.814-6.138-1.814-0.004 0-0.009 0-0.013 0h0.001c-2.266 0-4.379 0.667-6.152 1.814h-1.070l0.613-2.765zM3.516 6.94c0-0.042 0.034-0.075 0.075-0.075h4.286c0.042 0 0.076 0.033 0.076 0.075v1.295h-4.437v-1.295zM5.019 26.012v-6.777c0-0.345-0.28-0.625-0.625-0.625s-0.625 0.28-0.625 0.625v0 6.777h-1.597c-0.509-0.001-0.921-0.412-0.922-0.921v-14.687c0-0.508 0.414-0.92 0.922-0.92h8.477c-2.215 2.066-3.596 5.002-3.596 8.261 0 0.001 0 0.002 0 0.003v-0c0 3.257 1.385 6.197 3.597 8.265h-5.63zM24.169 26.012c-1.609 1.135-3.61 1.814-5.771 1.814s-4.162-0.679-5.802-1.836l0.032 0.021c-2.613-1.824-4.325-4.848-4.325-8.265s1.712-6.441 4.325-8.264c1.609-1.136 3.61-1.815 5.771-1.815s4.162 0.679 5.802 1.836l-0.032-0.021c2.613 1.823 4.325 4.847 4.325 8.264s-1.712 6.441-4.325 8.265zM30.75 25.091c0 0.508-0.414 0.92-0.922 0.92h-3.68c2.215-2.066 3.596-5.002 3.596-8.261 0-0.001 0-0.002 0-0.003v0c0-3.257-1.385-6.197-3.596-8.265h3.68c0.508 0 0.922 0.413 0.922 0.921v14.688z"></path>
      <path d="M18.37 10.111c-4.248 0-7.703 3.456-7.703 7.704s3.456 7.703 7.703 7.703c0.62 0 1.235-0.073 1.831-0.219 0.268-0.058 0.466-0.293 0.466-0.574 0-0.324-0.263-0.587-0.587-0.587-0.056 0-0.11 0.008-0.161 0.022l0.004-0.001c-0.464 0.118-0.997 0.185-1.545 0.185-3.608 0-6.534-2.923-6.538-6.53v-0c0-3.6 2.93-6.53 6.53-6.53s6.53 2.93 6.53 6.53c0 0.004 0 0.009 0 0.014 0 1.361-0.419 2.625-1.134 3.668l0.014-0.022c-0.058 0.089-0.092 0.198-0.092 0.315 0 0.324 0.263 0.587 0.587 0.587 0.195 0 0.368-0.095 0.475-0.242l0.001-0.002c0.828-1.206 1.323-2.698 1.323-4.305 0-0.005 0-0.009 0-0.014v0.001c0-4.248-3.456-7.704-7.704-7.704zM4.74 11.296c-1.308 0.002-2.368 1.062-2.37 2.37v0c0.001 1.309 1.061 2.369 2.37 2.371h0c1.309-0.001 2.369-1.061 2.371-2.37v-0c-0.002-1.308-1.062-2.368-2.37-2.37h-0zM4.74 14.764c-0.586-0.026-1.051-0.507-1.051-1.097s0.465-1.071 1.049-1.097l0.002-0c0.606 0 1.098 0.492 1.098 1.097s-0.492 1.097-1.097 1.097z"></path>
      <path d="M23.692 23.625c-0.017-0.081-0.048-0.152-0.089-0.215l0.001 0.002c-0.043-0.066-0.097-0.121-0.161-0.163l-0.002-0.001c-0.061-0.040-0.133-0.071-0.21-0.087l-0.004-0.001c-0.035-0.008-0.076-0.012-0.118-0.012-0.204 0-0.384 0.104-0.489 0.262l-0.001 0.002c-0.062 0.093-0.099 0.206-0.1 0.329v0c0 0.001 0 0.001 0 0.002 0 0.122 0.037 0.235 0.101 0.329l-0.001-0.002c0.064 0.098 0.155 0.173 0.262 0.217l0.004 0.001c0.067 0.028 0.144 0.044 0.225 0.044 0.123 0 0.237-0.037 0.332-0.1l-0.002 0.001c0.16-0.109 0.263-0.29 0.263-0.495 0-0.040-0.004-0.079-0.011-0.117l0.001 0.004z"></path>
    </symbol>
    <symbol id="icon-product-design" viewBox="0 0 32 32">
      <path d="M30.222 23.112v7.11h-12.444v-7.111h12.444zM30.222 1.778v14.222h-12.444v-14.222h12.444zM10.667 16h-8.89v14.222h8.89v-14.222zM10.667 1.778v7.11h-8.89v-7.11h8.89zM17.777 0c-0.98 0-1.777 0.796-1.777 1.778v14.222c0 0.982 0.796 1.778 1.778 1.778h12.444c0.982 0 1.778-0.796 1.778-1.778v-14.222c0-0.982-0.796-1.778-1.778-1.778h-12.444zM17.777 21.333c-0.981 0-1.777 0.796-1.777 1.778v7.111c0 0.982 0.796 1.778 1.778 1.778h12.444c0.982 0 1.778-0.796 1.778-1.778v-7.11c0-0.983-0.796-1.779-1.778-1.779h-12.444zM0 16c0-0.982 0.796-1.778 1.778-1.778h8.889c0.982 0 1.777 0.796 1.777 1.778v14.222c0 0.982-0.796 1.778-1.777 1.778h-8.89c-0.982-0.001-1.777-0.796-1.777-1.778v0-14.222zM1.778 0c-0.982 0-1.778 0.796-1.778 1.778v7.11c0 0.983 0.796 1.779 1.778 1.779h8.889c0.982 0 1.777-0.796 1.777-1.778v-7.111c0-0.982-0.796-1.778-1.777-1.778h-8.89z"></path>
    </symbol>
    <symbol id="icon-twitter" viewBox="0 0 32 32">
      <path d="M29.333 9.163c-0.92 0.395-1.971 0.657-3.152 0.788 1.051-0.657 1.969-1.707 2.364-2.889-1.051 0.656-2.233 1.051-3.416 1.313-0.92-1.051-2.364-1.708-3.94-1.708-3.021 0-5.387 2.364-5.387 5.253 0 0.395 0 0.789 0.132 1.184-4.468-0.264-8.408-2.365-11.167-5.517-0.493 0.735-0.787 1.64-0.787 2.614 0 0.004 0 0.009 0 0.013v-0.001c0 1.84 0.919 3.416 2.364 4.467-0.92 0-1.708-0.263-2.496-0.657v0.132c0 2.627 1.839 4.729 4.333 5.253-0.393 0.133-0.919 0.133-1.444 0.133-0.393 0-0.656 0-1.051-0.133 0.686 2.146 2.66 3.674 4.991 3.68h0.001c-1.84 1.444-4.204 2.232-6.7 2.232-0.393 0-0.92 0-1.313-0.131 2.364 1.576 5.253 2.364 8.276 2.364 9.853 0 15.369-8.144 15.369-15.107v-0.657c1.445-0.656 2.364-1.576 3.021-2.627z"></path>
    </symbol>
    <symbol id="icon-visual-design" viewBox="0 0 32 32">
      <path d="M17.221 1.2l13.579 13.578 1.2-1.2-13.579-13.578-1.2 1.2z"></path>
      <path d="M19.234 7.601c-0.461-0.461-1.097-0.746-1.801-0.746-0.363 0-0.708 0.076-1.020 0.212l0.016-0.006-9.423 4.040c-1.112 0.484-1.96 1.399-2.343 2.529l-0.009 0.030c-0.081-0.196-1.097 2.914-2.081 6.038l-0.899 3.308c-0.167 0.4-0.57 1.748-0.952 3.105l-0.224 0.934c-0.148 0.551-0.27 1.036-0.355 1.427-0.079 0.364-0.144 0.722-0.144 0.98v0.352l2.194 2.196h0.352c0.258 0 0.617-0.065 0.981-0.144 0.696-0.153 1.175-0.275 1.65-0.408l-0.223 0.053c2.289-0.605 3.638-1.007 4.977-1.431l-0.938 0.256c6.438-1.886 9.548-2.903 12.643-3.952l-3.297 0.97c1.16-0.391 2.076-1.239 2.549-2.324l0.011-0.027 4.038-9.424c0.13-0.296 0.206-0.64 0.206-1.003 0-0.703-0.285-1.34-0.746-1.8l-5.163-5.164zM17.099 8.621c0.098-0.043 0.213-0.068 0.334-0.068 0.234 0 0.446 0.095 0.6 0.248l5.164 5.164c0.154 0.153 0.249 0.366 0.249 0.6 0 0.121-0.025 0.236-0.071 0.34l0.002-0.005-4.038 9.423c-0.289 0.666-0.837 1.174-1.513 1.403l-0.018 0.005c0.192 0.081-2.906 1.094-6.018 2.075l-3.292 0.895c-1.522 0.464-2.907 0.87-3.984 1.16-0.54 0.145-0.994 0.258-1.347 0.335l-0.207 0.043 8.672-8.672c0.321 0.157 0.699 0.249 1.098 0.249 1.407 0 2.547-1.14 2.547-2.547s-1.14-2.547-2.547-2.547c-1.407 0-2.547 1.14-2.547 2.547 0 0.399 0.092 0.777 0.256 1.113l-0.007-0.015-8.672 8.673c0.012-0.063 0.027-0.132 0.043-0.207 0.077-0.353 0.19-0.808 0.335-1.347 0.29-1.078 0.696-2.462 1.16-3.984 1.876-6.405 2.889-9.503 3.933-12.586l-0.963 3.276c0.235-0.694 0.742-1.241 1.392-1.524l0.016-0.006 9.423-4.040z"></path>
    </symbol>
    <symbol id="icon-place-for-mom" viewBox="0 0 197 32">
      <path d="M10.194 11.141c0-.422-.143-.786-.43-1.092a1.408 1.408 0 0 0-1.067-.459c-1.338 0-2.729 1.425-4.173 4.274-1.337 2.575-2.007 4.621-2.007 6.14 0 1.372.467 2.058 1.401 2.058 1.316 0 2.633-1.33 3.95-3.988a29.106 29.106 0 0 0 2.103-5.76c.148-.591.223-.981.223-1.171zm3.854 7.976v.064a.248.248 0 0 0-.032.094c-.445 1.076-1.03 1.994-1.752 2.754-.913.929-1.869 1.393-2.867 1.393-1.147 0-1.72-.685-1.72-2.057 0-.358.031-.707.095-1.045-1.422 2.068-2.972 3.102-4.651 3.102-.998 0-1.783-.39-2.357-1.171C.255 21.575 0 20.721 0 19.687c0-2.11.924-4.441 2.771-6.995 1.975-2.701 3.982-4.051 6.021-4.051.871 0 1.603.38 2.198 1.14.169-.633.51-.95 1.02-.95.977 0 1.465.17 1.465.507 0 .064-.244.823-.733 2.278-1.891 5.634-2.835 8.874-2.835 9.718 0 .401.148.601.446.601.594 0 1.279-.538 2.054-1.614s1.173-1.614 1.195-1.614c.297 0 .446.138.446.412zM30.23 6.456c0-1.772-.43-3.043-1.289-3.813-.861-.77-2.162-1.145-3.903-1.124-1.359 0-2.039.296-2.039.886v9.02c.786.127 1.359.19 1.72.19 3.695-.02 5.532-1.74 5.511-5.159zm3.759 0c0 4.221-2.879 6.33-8.633 6.33-.744 0-1.529-.041-2.357-.126v5.634c0 1.983.351 3.123 1.051 3.419.042.021.499.158 1.37.412.509.126.753.296.733.506-.021.254-.192.38-.51.38h-8.664c-.318 0-.488-.126-.509-.38-.021-.21.223-.379.733-.506.87-.254 1.327-.391 1.37-.412.701-.296 1.051-1.435 1.051-3.419V5.317c0-1.984-.35-3.123-1.051-3.419-.043-.021-.499-.159-1.37-.412-.51-.126-.754-.295-.733-.507.021-.254.191-.379.509-.379h9.334c2.209 0 3.992.454 5.351 1.361 1.55 1.012 2.326 2.511 2.326 4.494zm7.887 16.175c-.022.254-.192.38-.51.38h-6.88c-.319 0-.489-.126-.51-.38-.021-.168.223-.317.733-.443.658-.147 1.115-.305 1.37-.474s.393-.633.414-1.393V3.704c0-.569-.053-.944-.16-1.124s-.425-.269-.955-.269c-.808 0-1.211-.127-1.211-.38 0-.274.255-.464.764-.57A24.67 24.67 0 0 0 38.563.317c.148-.043.266-.064.35-.064.212 0 .34.122.382.364s.064.755.064 1.535v16.142c0 2.132.138 3.271.414 3.419.149.085.606.221 1.37.412.51.148.753.316.733.506zm9.397-3.847v-3.528c-1.572.294-2.75.651-3.535 1.071-1.274.715-1.911 1.701-1.911 2.961 0 .672.196 1.213.589 1.622s.929.614 1.609.614c.849 0 1.603-.263 2.262-.787s.987-1.176.987-1.953zm5.829 2.043c-.573 1.625-1.571 2.437-2.994 2.437-1.529 0-2.464-.769-2.803-2.311-1.615 1.541-3.25 2.311-4.906 2.311-1.062 0-1.901-.305-2.516-.915s-.924-1.442-.924-2.495c0-1.916 1.04-3.347 3.122-4.295 1.189-.526 2.92-.937 5.192-1.231.064-2-.096-3.294-.478-3.884-.318-.526-1.04-.778-2.166-.758-.935.021-1.551.317-1.848.887l-.445 1.582c-.212.57-.669.855-1.37.855-.935 0-1.401-.401-1.401-1.203 0-1.033.647-1.835 1.942-2.405.998-.422 2.124-.633 3.377-.633 3.441.021 5.161 1.2 5.161 3.537v7.798c0 1.137.318 1.695.955 1.673.425 0 .78-.226 1.067-.68.287-.453.494-.68.622-.68.127 0 .239.047.334.142s.122.185.079.269zm12.499.011c-1.381 1.787-3.079 2.679-5.096 2.679-2.103 0-3.78-.665-5.033-1.998-1.253-1.332-1.879-3.066-1.879-5.202s.696-3.933 2.087-5.392c1.39-1.458 3.158-2.178 5.303-2.157.977 0 1.933.211 2.868.633 1.168.528 1.751 1.223 1.751 2.089 0 .822-.425 1.234-1.274 1.234-.51 0-.908-.242-1.195-.728s-.557-.97-.812-1.456c-.382-.506-.914-.759-1.593-.759-1.402 0-2.463.677-3.185 2.03-.552 1.08-.828 2.391-.828 3.935 0 1.692.339 3.121 1.02 4.284.807 1.439 1.985 2.158 3.535 2.158.892 0 1.742-.32 2.548-.96.169-.15.69-.694 1.561-1.633.106-.107.202-.16.286-.16.192 0 .287.16.287.478s-.117.628-.351.926zm11.493-7.327c-.128-2.508-1.136-3.751-3.026-3.731-2.038.021-3.26 1.477-3.664 4.368h3.982c1.827 0 2.729-.213 2.708-.638zm3.026 1.333c0 .233-.117.37-.351.412h-9.492c-.021.296-.032.518-.032.665 0 1.731.318 3.133.955 4.21.807 1.329 2.017 1.994 3.632 1.994 1.061 0 1.964-.232 2.707-.696.382-.254.944-.77 1.688-1.551a.395.395 0 0 1 .286-.126c.276 0 .415.126.415.38a.56.56 0 0 1-.096.284c-1.211 2.047-3.122 3.06-5.734 3.039-2.082-.022-3.759-.691-5.033-2.01s-1.911-3.002-1.911-5.049c0-2.11.626-3.893 1.879-5.349 1.338-1.54 3.048-2.3 5.129-2.278 1.592 0 2.92.474 3.982 1.424 1.295 1.139 1.953 2.69 1.975 4.652zm18.667-12.786c0 .316-.111.596-.335.839s-.494.364-.813.364c-.509 0-.913-.369-1.21-1.108s-.69-1.108-1.178-1.108c-1.105 0-1.976.646-2.613 1.938-.233.445-.605 1.557-1.115 3.337l-.859 2.987h3.153c.276 0 .415.131.415.391 0 .435-.234.653-.702.653h-3.12L91.224 22.28c-.744 2.777-1.476 4.829-2.198 6.154C87.708 30.811 86.063 32 84.087 32c-.743 0-1.401-.211-1.975-.633s-.86-.982-.86-1.678c0-.949.43-1.424 1.289-1.424.588 0 .955.232 1.101.696.042.168.063.622.063 1.361 0 .485.224.728.671.728.896 0 1.685-.801 2.367-2.402.299-.695.672-1.886 1.119-3.571l3.903-14.727h-3.313c-.191 0-.287-.12-.287-.359 0-.457.202-.685.606-.685h3.185c.848-2.722 1.677-4.716 2.483-5.982C95.82 1.108 97.529 0 99.568 0c.744 0 1.433.159 2.07.474.765.38 1.147.908 1.147 1.583zm3.06 10.128c0-1.731-.584-2.596-1.752-2.596-1.338 0-2.57 1.404-3.694 4.21-.957 2.385-1.434 4.379-1.434 5.982 0 1.836.626 2.754 1.88 2.754 1.316 0 2.527-1.424 3.631-4.273.913-2.405 1.37-4.431 1.37-6.077zm2.325 1.678c0 2.195-.657 4.273-1.975 6.235-1.486 2.215-3.281 3.324-5.384 3.324-1.38 0-2.442-.549-3.185-1.647-.68-.949-1.02-2.13-1.02-3.545 0-2.173.669-4.261 2.007-6.266 1.508-2.237 3.302-3.355 5.383-3.355 1.381 0 2.442.549 3.186 1.645.658.972.987 2.174.987 3.609zm12.899-3.514c0 .38-.111.728-.335 1.045-.222.316-.515.474-.876.474s-.637-.221-.828-.665c-.192-.443-.446-.665-.764-.665-1.169 0-3.08 4.157-5.734 12.47h-2.485c.637-2.131 1.274-4.273 1.911-6.425.998-3.397 1.497-5.307 1.497-5.729 0-.358-.159-.538-.477-.538-.573 0-1.115.348-1.625 1.045-.169.212-.509.791-1.018 1.741-.128.253-.308.38-.542.38-.319 0-.478-.127-.478-.38l.031-.127c.276-1.054.818-2.014 1.625-2.88.912-.95 1.879-1.424 2.898-1.424 1.125 0 1.688.644 1.688 1.931 0 .401-.074.898-.222 1.487a55.55 55.55 0 0 0-.415 1.488c1.614-3.27 3.133-4.906 4.555-4.906.468 0 .85.164 1.148.491s.446.722.446 1.186zm29.082 12.281c-.02.253-.191.38-.509.38h-8.41c-.319 0-.489-.127-.509-.38-.022-.21.223-.379.732-.506.87-.253 1.327-.391 1.37-.412.701-.295 1.051-1.434 1.051-3.419V3.355l-8.219 19.244c-.189.443-.339.664-.445.664s-.285-.284-.541-.854l-7.072-16.143c-.382-.865-.765-1.593-1.147-2.184l.192 14.212c.021 1.013.064 1.699.128 2.058.148.695.457 1.15.924 1.361.042.021.499.158 1.369.412.509.127.754.296.733.506-.022.253-.191.38-.511.38h-6.816c-.318 0-.489-.127-.509-.38-.022-.21.222-.379.733-.506.87-.253 1.327-.391 1.37-.412.466-.21.775-.686.923-1.425.085-.358.128-1.023.128-1.994l.159-15.573c-.34-.273-.839-.548-1.497-.823a24.305 24.305 0 0 1-1.37-.412c-.51-.127-.754-.295-.733-.507.02-.254.191-.379.509-.379h3.822c1.444.022 2.272.09 2.485.206.211.117.531.67.956 1.662l6.785 15.794 7.327-17.187c.127-.317.413-.475.859-.475h5.225c.319 0 .489.126.509.379.02.212-.223.38-.732.507-.872.254-1.327.391-1.37.412-.701.296-1.052 1.436-1.052 3.419v12.977c0 1.984.351 3.123 1.052 3.419.042.021.498.158 1.37.412.509.127.753.296.732.506zm12.169-6.473c0-1.756-.288-3.194-.861-4.316-.742-1.459-1.901-2.188-3.471-2.188-1.572 0-2.729.751-3.471 2.253-.573 1.121-.86 2.548-.86 4.283 0 1.692.287 3.099.86 4.219.764 1.439 1.921 2.158 3.471 2.158 1.571 0 2.729-.719 3.471-2.158.573-1.121.861-2.538.861-4.252zm3.057-.19c0 2.157-.7 3.954-2.102 5.393s-3.186 2.157-5.352 2.157-3.918-.677-5.254-2.03c-1.34-1.354-2.008-3.119-2.008-5.297 0-2.157.701-3.934 2.103-5.33 1.4-1.396 3.186-2.092 5.352-2.092 2.058 0 3.785.687 5.176 2.061 1.39 1.374 2.085 3.087 2.085 5.138zm27.491 6.664c-.022.253-.192.379-.511.379h-6.88c-.319 0-.489-.126-.509-.379-.02-.168.223-.316.732-.443.658-.147 1.12-.309 1.386-.488.265-.179.398-1.311.398-3.395v-4.104c0-1.285-.159-2.221-.477-2.811-.425-.8-1.243-1.2-2.454-1.2-1.019 0-1.891.311-2.611.932-.723.621-1.083 1.384-1.083 2.289v4.893c.02 1.263.031 1.957.031 2.084.044.758.17 1.2.383 1.326.211.127.669.274 1.37.442.509.126.753.284.733.474-.022.253-.192.379-.509.379h-6.881c-.319 0-.489-.126-.509-.379-.022-.168.223-.316.732-.443.658-.147 1.119-.309 1.386-.488.265-.179.398-1.311.398-3.395v-4.104c0-1.285-.159-2.221-.479-2.811-.424-.8-1.242-1.2-2.452-1.2-1.02 0-1.889.311-2.611.932s-1.083 1.384-1.083 2.289v4.893c0 2.126.137 3.263.413 3.41.148.084.604.221 1.37.41.509.147.754.316.733.505-.023.253-.192.379-.509.379h-6.881c-.319 0-.489-.126-.509-.38-.022-.168.233-.305.763-.412.659-.126 1.116-.3 1.371-.522s.383-1.356.383-3.403v-6.045c0-.57-.052-.944-.16-1.124-.106-.179-.425-.269-.956-.269-.806 0-1.21-.126-1.21-.379 0-.274.253-.465.763-.57a24.29 24.29 0 0 0 3.626-1.045c.192-.042.319-.063.383-.063.191 0 .307.138.351.412.019.19.041.728.063 1.614.466-.602 1.149-1.09 2.052-1.464a7.196 7.196 0 0 1 2.783-.562c2.207 0 3.585.813 4.137 2.438 1.272-1.625 3.053-2.438 5.344-2.438 1.74 0 2.938.474 3.596 1.422.721 1.032 1.08 2.653 1.08 4.863v3.222c0 1.2.012 1.895.032 2.084.044.759.17 1.2.383 1.327s.669.274 1.371.442c.508.126.753.284.732.474zm2.848-1.429a.735.735 0 0 0-.26-.036h-.109v.493h.175c.104 0 .184-.021.243-.063s.088-.108.088-.201c0-.092-.046-.157-.138-.193zm-.815 1.364v-1.698l.475.001.353.003c.134.01.247.039.337.088.152.083.228.218.228.405 0 .143-.04.246-.12.309a.55.55 0 0 1-.296.114.571.571 0 0 1 .242.098c.101.081.151.208.151.381v.151a.289.289 0 0 0 .017.1l.015.048h-.428a1.252 1.252 0 0 1-.028-.235.732.732 0 0 0-.028-.207.206.206 0 0 0-.125-.125.488.488 0 0 0-.152-.027l-.099-.006h-.095v.601h-.447zm-.23-1.74a1.22 1.22 0 0 0-.369.887c0 .355.125.656.375.904.248.248.548.372.9.372.349 0 .649-.125.897-.374.248-.251.372-.552.372-.902a1.22 1.22 0 0 0-.371-.887 1.213 1.213 0 0 0-.899-.382c-.355 0-.657.128-.906.382zm1.985 1.987c-.3.288-.659.432-1.079.432-.434 0-.799-.147-1.097-.443a1.475 1.475 0 0 1-.445-1.089c0-.448.161-.82.481-1.116a1.517 1.517 0 0 1 1.061-.416c.425 0 .788.15 1.089.449s.452.66.452 1.082c0 .435-.154.801-.462 1.099z"/>
    </symbol>
    <symbol id="icon-vector" viewBox="0 0 64 32">
      <path d="M44.576 10.459c.235 0 .466-.015.693-.045l8.852 12.876a5.23 5.23 0 1 0 1.992-1.389L47.615 9.486a5.23 5.23 0 1 0-5.923.106l-8.42 12.212a5.236 5.236 0 0 0-3.087-.063L21.809 9.592a5.23 5.23 0 1 0-5.94-.118L7.256 21.948a5.23 5.23 0 1 0 2.013 1.502l8.963-13.037a5.28 5.28 0 0 0 1.158.025l8.671 12.504a5.23 5.23 0 1 0 7.277.144l8.771-12.649c.153.014.309.02.466.02z"/>
    </symbol>
    <symbol id="icon-arrow-up" viewBox="0 0 32 32">
      <path d="m27.414 12.586-10-10a2 2 0 0 0-2.828 0l-10 10a2 2 0 1 0 2.828 2.828L14 8.828V28a2 2 0 1 0 4 0V8.828l6.586 6.586c.39.39.902.586 1.414.586s1.024-.195 1.414-.586a2 2 0 0 0 0-2.828z"/>
    </symbol>
  </defs>
</svg>
